<svg xmlns="http://www.w3.org/2000/svg" viewBox="0 0 1400 560" width="1400" height="560">
  <!-- Dark gradient background -->
  <defs>
    <linearGradient id="bgGradientLarge" x1="0%" y1="0%" x2="100%" y2="100%">
      <stop offset="0%" style="stop-color:#1a1a1a;stop-opacity:1" />
      <stop offset="50%" style="stop-color:#0f0f0f;stop-opacity:1" />
      <stop offset="100%" style="stop-color:#0a0a0a;stop-opacity:1" />
    </linearGradient>
    <radialGradient id="glowCenter">
      <stop offset="0%" style="stop-color:#A855F7;stop-opacity:0.2" />
      <stop offset="100%" style="stop-color:#A855F7;stop-opacity:0" />
    </radialGradient>
  </defs>

  <rect width="1400" height="560" fill="url(#bgGradientLarge)"/>
  <circle cx="700" cy="280" r="400" fill="url(#glowCenter)"/>

  <!-- Large icon on the left -->
  <g transform="translate(200, 140)">
    <!-- Main lens circle -->
    <circle cx="56" cy="64" r="48" fill="none" stroke="#A855F7" stroke-width="6"/>
    <circle cx="50" cy="58" r="12" fill="#A855F7" opacity="0.4"/>

    <!-- Lens handle -->
    <path d="M 96 96 L 120 120" stroke="#A855F7" stroke-width="6" stroke-linecap="round"/>
    <path d="M 100 100 L 124 124" stroke="#A855F7" stroke-width="4" stroke-linecap="round" opacity="0.6"/>

    <!-- Devil horns -->
    <path d="M 24 24 Q 18 8 12 2 Q 18 6 24 20" fill="#A855F7"/>
    <path d="M 88 24 Q 94 8 100 2 Q 94 6 88 20" fill="#A855F7"/>

    <!-- Glow -->
    <circle cx="56" cy="64" r="52" fill="none" stroke="#A855F7" stroke-width="2" opacity="0.3"/>
    <circle cx="56" cy="64" r="58" fill="none" stroke="#A855F7" stroke-width="1" opacity="0.2"/>

    <!-- Data points -->
    <circle cx="44" cy="64" r="3" fill="#10b981"/>
    <circle cx="56" cy="72" r="3" fill="#10b981"/>
    <circle cx="68" cy="64" r="3" fill="#10b981"/>
    <circle cx="56" cy="56" r="3" fill="#f59e0b"/>
    <circle cx="50" cy="70" r="3" fill="#ef4444"/>
  </g>

  <!-- Main title -->
  <text x="500" y="220" font-family="Arial, sans-serif" font-size="72" font-weight="bold" fill="#ffffff">
    Analyze Crypto Tokens
  </text>
  <text x="500" y="280" font-family="Arial, sans-serif" font-size="72" font-weight="bold" fill="#ffffff">
    with <tspan fill="#A855F7">AI</tspan>
  </text>

  <!-- Subtitle -->
  <text x="500" y="340" font-family="Arial, sans-serif" font-size="28" fill="#9ca3af">
    Claude • OpenAI • Multi-Chain • Real-time Data
  </text>

  <!-- Feature badges -->
  <g transform="translate(500, 380)">
    <!-- Badge 1 -->
    <rect x="0" y="0" width="140" height="50" rx="25" fill="#A855F7" opacity="0.2"/>
    <text x="70" y="33" font-family="Arial, sans-serif" font-size="18" fill="#A855F7" text-anchor="middle">
      🤖 AI-Powered
    </text>

    <!-- Badge 2 -->
    <rect x="160" y="0" width="140" height="50" rx="25" fill="#10b981" opacity="0.2"/>
    <text x="230" y="33" font-family="Arial, sans-serif" font-size="18" fill="#10b981" text-anchor="middle">
      🔗 7 Chains
    </text>

    <!-- Badge 3 -->
    <rect x="320" y="0" width="140" height="50" rx="25" fill="#f59e0b" opacity="0.2"/>
    <text x="390" y="33" font-family="Arial, sans-serif" font-size="18" fill="#f59e0b" text-anchor="middle">
      ⚡ Real-time
    </text>

    <!-- Badge 4 -->
    <rect x="480" y="0" width="140" height="50" rx="25" fill="#ef4444" opacity="0.2"/>
    <text x="550" y="33" font-family="Arial, sans-serif" font-size="18" fill="#ef4444" text-anchor="middle">
      🔒 Private
    </text>
  </g>

  <!-- Decorative elements -->
  <circle cx="1200" cy="100" r="40" fill="#A855F7" opacity="0.1"/>
  <circle cx="1300" cy="450" r="60" fill="#A855F7" opacity="0.08"/>
  <circle cx="100" cy="480" r="30" fill="#10b981" opacity="0.15"/>
  <circle cx="1350" cy="280" r="50" fill="#10b981" opacity="0.1"/>

  <!-- Grid pattern overlay -->
  <g opacity="0.03">
    <pattern id="grid" width="40" height="40" patternUnits="userSpaceOnUse">
      <path d="M 40 0 L 0 0 0 40" fill="none" stroke="#ffffff" stroke-width="1"/>
    </pattern>
    <rect width="1400" height="560" fill="url(#grid)"/>
  </g>
</svg>
