<svg xmlns="http://www.w3.org/2000/svg" viewBox="0 0 440 280" width="440" height="280">
  <!-- Dark gradient background -->
  <defs>
    <linearGradient id="bgGradient" x1="0%" y1="0%" x2="100%" y2="100%">
      <stop offset="0%" style="stop-color:#1a1a1a;stop-opacity:1" />
      <stop offset="100%" style="stop-color:#0a0a0a;stop-opacity:1" />
    </linearGradient>
    <linearGradient id="glowGradient" x1="0%" y1="0%" x2="0%" y2="100%">
      <stop offset="0%" style="stop-color:#A855F7;stop-opacity:0.3" />
      <stop offset="100%" style="stop-color:#A855F7;stop-opacity:0" />
    </linearGradient>
  </defs>

  <rect width="440" height="280" fill="url(#bgGradient)"/>

  <!-- Icon on the left -->
  <g transform="translate(60, 70)">
    <!-- Main lens circle -->
    <circle cx="56" cy="64" r="32" fill="none" stroke="#A855F7" stroke-width="4"/>
    <circle cx="52" cy="60" r="8" fill="#A855F7" opacity="0.4"/>

    <!-- Lens handle -->
    <path d="M 80 88 L 95 103" stroke="#A855F7" stroke-width="4" stroke-linecap="round"/>

    <!-- Devil horns -->
    <path d="M 36 36 Q 32 24 28 20 Q 32 22 36 32" fill="#A855F7"/>
    <path d="M 76 36 Q 80 24 84 20 Q 80 22 76 32" fill="#A855F7"/>

    <!-- Glow -->
    <circle cx="56" cy="64" r="36" fill="none" stroke="#A855F7" stroke-width="1" opacity="0.2"/>

    <!-- Data points -->
    <circle cx="48" cy="64" r="2" fill="#10b981"/>
    <circle cx="56" cy="70" r="2" fill="#10b981"/>
    <circle cx="64" cy="64" r="2" fill="#10b981"/>
    <circle cx="56" cy="58" r="2" fill="#f59e0b"/>
  </g>

  <!-- Text on the right -->
  <text x="220" y="120" font-family="Arial, sans-serif" font-size="36" font-weight="bold" fill="#ffffff">
    DegenLens
  </text>
  <text x="220" y="155" font-family="Arial, sans-serif" font-size="18" fill="#A855F7">
    AI-Powered DEX Scanner
  </text>

  <!-- Feature highlights -->
  <g transform="translate(220, 180)">
    <text x="0" y="0" font-family="Arial, sans-serif" font-size="14" fill="#9ca3af">
      🤖 Multiple AI Models
    </text>
    <text x="0" y="25" font-family="Arial, sans-serif" font-size="14" fill="#9ca3af">
      🔗 Multi-Chain
    </text>
    <text x="0" y="50" font-family="Arial, sans-serif" font-size="14" fill="#9ca3af">
      📊 Real-time Data
    </text>
  </g>

  <!-- Decorative elements -->
  <circle cx="400" cy="40" r="20" fill="#A855F7" opacity="0.1"/>
  <circle cx="420" cy="240" r="30" fill="#A855F7" opacity="0.08"/>
  <circle cx="30" cy="250" r="15" fill="#10b981" opacity="0.15"/>
</svg>
